# xmcd
#
# Track frame offsets:
#	150
#	28895
#	45687
#	64583
#	80266
#	100318
#	125987
#	142839
#
# Disc length: 2211 seconds
# Revision: 0
# Processed by: cddbd v1.5.2PL0 Copyright (c) Steve Scherf et al.
# Submitted via: dBpowerAMP V12.0
#
DISCID=6b08a108
DTITLE=Jesse Valach Presents Blues Mountain - Separation Street
DYEAR=2015
DGENRE=Blues
TTITLE0=Don't Let Love Run Out
TTITLE1=Kerrie Lee
TTITLE2=Only Got One Problem
TTITLE3=Can't Let You Go
TTITLE4=Say Your Prayers
TTITLE5=Now Or Never
TTITLE6=She Gives Me Something
TTITLE7=Promised Land
EXTD=
EXTT0=
EXTT1=
EXTT2=
EXTT3=
EXTT4=
EXTT5=
EXTT6=
EXTT7=
PLAYORDER=
